<svg xmlns="http://www.w3.org/2000/svg" viewBox="0 0 64 64" role="img" aria-label="Favicon cuervo negro">
  <defs>
    <linearGradient id="bg" x1="0" y1="0" x2="1" y2="1">
      <stop offset="0%" stop-color="#0b3d91" />
      <stop offset="100%" stop-color="#6d0f2f" />
    </linearGradient>
  </defs>
  <rect width="64" height="64" rx="12" fill="url(#bg)" />
  <path
    fill="#050505"
    d="M19 45c4-2 5-5 5-8 0-4 2-7 6-9l-5-4c5-2 12-1 16 3 4 4 4 10 1 15 2 1 4 3 6 6-4-1-8-2-11-2-3 0-6 1-10 1-3 0-6-1-8-2zM42 23l6-2-4 5z"
  />
</svg>
